<svg width="17" height="22" viewBox="0 0 17 22" fill="none" xmlns="http://www.w3.org/2000/svg">
<g clip-path="url(#clip0_46_3626)">
<path d="M0.00341736 8.76845C0.00341736 7.0295 -0.000449133 5.29054 0.00438398 3.55255C0.0101837 1.45015 1.40212 0.0272787 3.51226 0.0156792C6.86064 -0.00365322 10.21 -0.00171997 13.5584 0.013746C15.5593 0.0224456 16.9928 1.47625 16.9966 3.47619C17.0044 7.03433 17.0015 10.5925 16.9966 14.1506C16.9957 15.21 16.5965 16.1042 15.7729 16.7721C14.0359 18.1814 12.2931 19.5859 10.5299 20.9634C9.32456 21.9058 7.70837 21.9203 6.49526 20.9779C4.70217 19.5869 2.93712 18.1602 1.17883 16.7247C0.3862 16.0781 0.0111503 15.2004 0.00728385 14.1786C-0.000449133 12.3759 0.0053506 10.5722 0.0053506 8.76942C0.00438398 8.76845 0.00341736 8.76845 0.00341736 8.76845ZM15.4694 8.78779C15.4694 7.0324 15.4742 5.27798 15.4674 3.52259C15.4626 2.28724 14.7135 1.54198 13.4772 1.54004C10.1926 1.53521 6.908 1.53714 3.62342 1.53908C2.25372 1.54004 1.53165 2.25245 1.53068 3.61732C1.52875 7.11166 1.53648 10.605 1.52971 14.0994C1.52875 14.7432 1.76267 15.2545 2.25855 15.6547C3.93854 17.008 5.6137 18.367 7.29949 19.7126C8.05538 20.3157 8.93404 20.3051 9.69284 19.701C11.3545 18.3767 13.0074 17.0408 14.6729 15.7204C15.2181 15.2883 15.479 14.7509 15.4742 14.052C15.4597 12.2976 15.4684 10.5432 15.4694 8.78779Z" fill="#1A365D"/>
<path d="M14.6776 8.96156C14.6776 10.4424 14.6757 11.9233 14.6786 13.4042C14.6805 14.1282 14.4079 14.712 13.8396 15.1653C12.5056 16.2286 11.1794 17.3016 9.84354 18.3629C8.96681 19.0599 8.03596 19.0512 7.1515 18.3475C5.84172 17.3054 4.54161 16.2509 3.22411 15.2175C2.6074 14.7333 2.31548 14.1233 2.31838 13.3413C2.32805 10.3796 2.32031 7.4169 2.32805 4.45516C2.33191 3.18406 3.18158 2.33149 4.45075 2.32859C7.15536 2.32183 9.85997 2.32086 12.5646 2.32859C13.827 2.33246 14.6757 3.20435 14.6776 4.4687C14.6786 5.96696 14.6776 7.46426 14.6776 8.96156ZM3.84758 8.94706C3.84951 8.94706 3.85048 8.94706 3.85241 8.94706C3.85241 10.4115 3.83791 11.8769 3.86691 13.3404C3.87174 13.5753 4.01287 13.8788 4.19266 14.0276C5.44541 15.0629 6.73101 16.0575 7.99149 17.0831C8.35687 17.3808 8.6488 17.3779 9.01225 17.0812C10.2573 16.0624 11.5303 15.0764 12.7647 14.045C12.9648 13.8778 13.1301 13.5424 13.133 13.2824C13.16 10.3699 13.1523 7.45653 13.1513 4.54313C13.1513 4.02115 12.9822 3.85489 12.4573 3.85392C9.83387 3.85199 7.21046 3.85102 4.58704 3.85199C4.00224 3.85199 3.85241 4.00375 3.85048 4.60112C3.84565 6.05009 3.84758 7.49809 3.84758 8.94706Z" fill="#1A365D"/>
<path d="M9.44482 10.02C9.99482 10.5652 10.5342 11.0939 11.0678 11.6285C11.5782 12.1398 11.5762 12.5178 11.0707 13.0262C10.4346 13.6651 9.80053 14.3051 9.15966 14.9382C8.68215 15.4089 8.3129 15.4051 7.83055 14.9285C7.17905 14.2828 6.52948 13.6352 5.88571 12.9817C5.43913 12.5294 5.43236 12.135 5.87508 11.6884C6.41832 11.1403 6.97606 10.6068 7.58503 10.0103C7.02922 9.46614 6.50435 8.95673 5.98624 8.44055C5.40143 7.85671 5.4024 7.52033 5.9814 6.93939C6.59424 6.32365 7.20708 5.70694 7.82572 5.097C8.31773 4.61176 8.66862 4.60209 9.1529 5.07574C9.81987 5.72821 10.4791 6.38938 11.1335 7.05538C11.5608 7.49036 11.5598 7.87798 11.1364 8.31296C10.5864 8.8765 10.0287 9.43134 9.44482 10.02ZM9.50958 7.69432C9.16643 7.36663 8.80298 7.01962 8.42503 6.6581C8.10604 6.99352 7.76772 7.34923 7.48354 7.64695C7.82862 8.0452 8.14761 8.41349 8.50622 8.8272C8.86967 8.41832 9.18479 8.06164 9.50958 7.69432ZM8.55359 11.3453C8.16694 11.6961 7.80252 12.0267 7.52413 12.279C7.85375 12.6628 8.17177 13.0339 8.51782 13.4361C8.88321 13.0562 9.22056 12.7043 9.59851 12.3119C9.22443 11.9668 8.86291 11.6323 8.55359 11.3453Z" fill="#1A365D"/>
</g>
<defs>
<clipPath id="clip0_46_3626">
<rect width="17" height="21.6756" fill="white"/>
</clipPath>
</defs>
</svg>
