<svg width="22" height="22" viewBox="0 0 22 22" fill="none" xmlns="http://www.w3.org/2000/svg">
<path d="M16.2475 7.00536C16.3507 7.06491 16.4677 7.09627 16.5868 7.09627C16.7059 7.09627 16.8229 7.06491 16.9261 7.00536L19.6404 5.64821C19.7457 5.59219 19.8345 5.50937 19.8976 5.4081C19.9607 5.30683 19.9961 5.1907 20 5.07143V3.71429C20 3.53432 19.9285 3.36172 19.8013 3.23446C19.674 3.10721 19.5014 3.03571 19.3214 3.03571H18.8329C16.727 1.86206 14.3082 1.37262 11.9117 1.63524C9.51528 1.89787 7.25988 2.89955 5.45821 4.50143L5.07143 4.11464V1.67857C5.07143 1.4986 4.99994 1.32601 4.87268 1.19875C4.74542 1.07149 4.57283 1 4.39286 1H1.67857C1.4986 1 1.32601 1.07149 1.19875 1.19875C1.07149 1.32601 1 1.4986 1 1.67857V4.39286C1 4.57283 1.07149 4.74542 1.19875 4.87268C1.32601 4.99994 1.4986 5.07143 1.67857 5.07143H4.11464L4.50143 5.45821C2.89955 7.25988 1.89787 9.51528 1.63524 11.9117C1.37262 14.3082 1.86206 16.727 3.03571 18.8329V19.3214C3.03571 19.5014 3.10721 19.674 3.23446 19.8013C3.36172 19.9285 3.53432 20 3.71429 20H5.07143C5.19674 19.9996 5.3195 19.9645 5.42609 19.8987C5.53269 19.8328 5.61897 19.7387 5.67536 19.6268L7.0325 16.9125C7.08455 16.8092 7.10934 16.6943 7.10449 16.5787C7.09965 16.4632 7.06535 16.3508 7.00484 16.2522C6.94433 16.1536 6.85962 16.0721 6.75876 16.0155C6.65791 15.9588 6.54424 15.9289 6.42857 15.9286H5.36321L5.28179 15.6707L10.0318 10.9546L13.8929 14.8496V16.6071C13.8923 16.6964 13.9095 16.785 13.9432 16.8677C13.977 16.9503 14.0268 17.0255 14.0896 17.0889L16.8039 19.8032C16.8673 19.8661 16.9425 19.9159 17.0252 19.9496C17.1079 19.9834 17.1964 20.0005 17.2857 20C17.3747 20.0023 17.463 19.9837 17.5436 19.9457C17.6675 19.8948 17.7736 19.8084 17.8484 19.6973C17.9233 19.5862 17.9636 19.4554 17.9643 19.3214V17.9643H19.3214C19.4554 17.9636 19.5862 17.9233 19.6973 17.8484C19.8084 17.7736 19.8948 17.6675 19.9457 17.5436C19.9977 17.42 20.0119 17.2838 19.9865 17.1522C19.9612 17.0205 19.8974 16.8994 19.8032 16.8039L17.0889 14.0896C17.0255 14.0268 16.9503 13.977 16.8677 13.9432C16.785 13.9095 16.6964 13.8923 16.6071 13.8929H14.8496L10.9546 9.99786L15.5689 5.39036C15.5976 5.35453 15.6227 5.31588 15.6436 5.275L15.9286 5.36321V6.42857C15.9283 6.54389 15.9575 6.65737 16.0133 6.75829C16.0691 6.85921 16.1497 6.94424 16.2475 7.00536ZM17.6861 16.6071H17.2857C17.1057 16.6071 16.9331 16.6786 16.8059 16.8059C16.6786 16.9331 16.6071 17.1057 16.6071 17.2857V17.6861L15.25 16.3289V15.25H16.3289L17.6861 16.6071ZM2.35714 2.35714H3.71429V3.71429H2.35714V2.35714ZM4.94929 14.0896C4.82577 12.971 4.93242 11.8388 5.26267 10.7629C5.59292 9.68696 6.13979 8.68996 6.86964 7.83321L9.04107 9.99786L4.94929 14.0896ZM9.99786 9.04107L7.83321 6.86964C8.68996 6.13979 9.68696 5.59292 10.7629 5.26267C11.8388 4.93242 12.971 4.82577 14.0896 4.94929L9.99786 9.04107ZM6.3675 6.3675C5.01848 7.7134 4.09914 9.42933 3.72588 11.298C3.35263 13.1667 3.54224 15.1041 4.27071 16.865C4.32162 16.9889 4.40807 17.095 4.51917 17.1699C4.63026 17.2447 4.76103 17.285 4.895 17.2857H5.32929L4.65071 18.6429H4.39286C4.39105 18.5265 4.36076 18.4123 4.30464 18.3104C3.16708 16.356 2.708 14.0802 2.99894 11.8376C3.28989 9.59507 4.31451 7.51176 5.91314 5.91236C7.51176 4.31296 9.59458 3.28732 11.837 2.99529C14.0794 2.70326 16.3554 3.16124 18.3104 4.29786C18.4111 4.35771 18.5257 4.39044 18.6429 4.39286V4.65071L17.2857 5.32929V4.895C17.285 4.76103 17.2447 4.63026 17.1699 4.51917C17.095 4.40807 16.9889 4.32162 16.865 4.27071C15.1041 3.54224 13.1667 3.35263 11.298 3.72588C9.42933 4.09914 7.7134 5.01848 6.3675 6.3675Z" fill="#1A365D"/>
</svg>
