<svg width="20" height="18" viewBox="0 0 20 18" fill="none" xmlns="http://www.w3.org/2000/svg">
<g clip-path="url(#clip0_20_694)">
<path d="M8.46572 7.14479C7.33811 6.29617 6.17013 6.22799 4.9582 6.5599C4.54914 6.67204 4.15892 6.88284 3.78664 7.09455C3.44127 7.29191 3.0959 7.45517 2.7604 7.16632C2.44104 6.89182 2.53703 6.50608 2.66441 6.16699C3.31299 4.44104 4.30604 2.94743 5.75838 1.80368C8.24952 -0.156402 10.9775 -0.511639 13.8992 0.700292C15.0116 1.16228 15.0833 1.50227 14.3486 2.54555C14.4769 2.52761 14.6133 2.5312 14.7299 2.48365C14.8205 2.44777 14.8788 2.33923 14.9622 2.27822C15.269 2.05486 15.5767 2.0719 15.8602 2.315C16.1275 2.54465 16.1652 2.94743 15.9499 3.24974C15.8476 3.39238 15.7194 3.51617 15.6054 3.64625C16.3087 4.39978 17.4588 4.44194 18.4294 3.78708C18.6429 3.64266 18.8914 3.51438 19.1399 3.46504C19.5435 3.3843 19.7875 3.60049 19.8566 4.00955C20.5563 8.1486 18.6904 12.8322 13.3771 13.9212C12.5303 14.0943 11.6323 14.0208 10.7568 14.0477C10.4545 14.0576 10.1809 13.9589 10.1136 13.618C10.0463 13.2753 10.1082 12.9595 10.4428 12.7631C10.5837 12.6797 10.7326 12.6079 10.8672 12.5173C12.0172 11.7395 12.0396 10.0351 10.8636 9.22149C10.3504 9.74178 9.83104 10.2719 9.30716 10.7985C7.09769 13.0188 4.88733 15.2381 2.67607 17.4574C2.1181 18.0172 1.82656 18.0145 1.25872 17.4493C0.951921 17.1443 0.645126 16.8393 0.343713 16.529C-0.117377 16.0544 -0.119172 15.736 0.346404 15.2659C2.57202 13.0196 4.79942 10.7743 7.02952 8.53254C7.49061 8.07145 7.96785 7.62561 8.46572 7.14479ZM4.76892 5.10756C5.07213 5.06001 5.31792 4.99901 5.56641 4.98735C5.97009 4.96851 6.27778 4.83037 6.57202 4.52537C7.35605 3.71263 8.27016 3.06495 9.36009 2.73214C9.80862 2.59489 10.2894 2.52312 10.7586 2.50518C11.1461 2.49083 11.3937 2.76802 11.4162 3.16004C11.4395 3.55564 11.2116 3.80054 10.8304 3.89204C10.7299 3.91626 10.6231 3.90819 10.52 3.92254C9.51259 4.06338 8.63257 4.46347 7.89249 5.1865C8.33295 5.42153 8.7465 5.60005 9.1125 5.84853C9.4794 6.09792 9.79875 6.41637 10.1396 6.70433C10.694 7.1726 11.2376 7.65342 11.8064 8.10285C12.3715 8.54959 12.7949 9.08872 13.0345 9.77049C13.0766 9.89159 13.1251 10.0109 13.1681 10.1266C15.0223 9.63144 16.5976 7.43364 16.3993 5.61888C15.3596 5.43947 14.5927 4.79448 13.892 4.04006C13.6184 3.74582 13.3215 3.47311 13.0336 3.19054C12.4837 2.64961 12.4558 2.50339 12.7815 1.83508C9.83463 0.49935 6.11003 2.46392 4.76892 5.10756ZM18.5532 5.40987C18.0876 5.44396 17.8696 5.62606 17.8068 6.16161C17.5036 8.729 16.1275 10.5276 13.7108 11.4211C13.0712 11.6579 12.89 12.0553 12.7303 12.5998C16.0064 12.4509 19.1156 8.59265 18.5532 5.40987ZM9.55295 8.16206C7.37309 10.3491 5.21207 12.5182 3.04118 14.6972C3.23674 15.0353 3.37847 14.7474 3.51483 14.611C5.37175 12.7622 7.22328 10.9089 9.0811 9.06091C9.30985 8.83396 9.56551 8.63481 9.82656 8.40785C9.66419 8.26253 9.59153 8.19704 9.55295 8.16206Z" fill="#1A365D"/>
<path d="M13.2891 6.68312C12.3077 7.55865 12.0063 7.67527 11.6699 7.28056C11.0303 6.53062 11.8538 6.20229 12.2162 5.66764C11.9991 5.4676 11.7676 5.28101 11.5676 5.06482C11.2581 4.73111 11.2635 4.30142 11.5541 4.02602C11.8394 3.756 12.2332 3.75331 12.5526 4.06728C13.3922 4.89348 14.2247 5.72774 15.0446 6.57367C15.3487 6.88675 15.3245 7.29491 15.0347 7.573C14.762 7.83494 14.3799 7.83943 14.0677 7.5721C13.9206 7.44652 13.7807 7.31016 13.6542 7.16394C13.5268 7.01862 13.4191 6.85625 13.2891 6.68312Z" fill="#1A365D"/>
</g>
<defs>
<clipPath id="clip0_20_694">
<rect width="20" height="17.8767" fill="white"/>
</clipPath>
</defs>
</svg>
