<svg width="14" height="19" viewBox="0 0 14 19" fill="none" xmlns="http://www.w3.org/2000/svg">
<g clip-path="url(#clip0_14_272)">
<path d="M14 9.02284C14 11.7044 14 14.386 14 17.0676C14 17.8139 13.8124 18.0023 13.0661 18.0032C9.43979 18.004 5.81346 18.0049 2.18714 18.0032C0.80131 18.0015 0 17.1927 0 15.7944C0 11.265 0.00083383 6.73564 0.00416915 2.20628C0.00500298 0.86882 0.892198 0.000803312 2.23049 0.00163714C5.84264 0.00497246 9.4548 0.000803312 13.0669 -3.05176e-05C13.8099 -3.05176e-05 14 0.190083 14 0.93636C14.0008 3.63213 14 6.32707 14 9.02284ZM12.6584 9.99508C10.9857 9.99508 9.36224 9.99592 7.73794 9.99508C6.38797 9.99425 5.33901 8.98865 5.33734 7.69705C5.33651 6.35125 6.35712 5.34065 7.72043 5.33981C9.248 5.33815 10.7764 5.33815 12.304 5.33648C12.4224 5.33648 12.5408 5.3223 12.6567 5.3148C12.6567 5.05048 12.6567 4.83118 12.6567 4.60271C10.8973 4.17495 9.76832 3.11933 9.37892 1.35161C7.57201 1.35161 5.80012 1.35161 4.02239 1.35161C4.02239 5.57912 4.02239 9.77829 4.02239 13.9908C5.8268 13.9908 7.59952 13.9908 9.38142 13.9908C9.77582 12.1872 10.9232 11.1508 12.6584 10.7297C12.6584 10.4812 12.6584 10.2636 12.6584 9.99508ZM12.655 15.3349C12.4774 15.3349 12.3407 15.3349 12.2039 15.3349C10.0935 15.3341 7.98309 15.3316 5.8735 15.3316C4.61024 15.3316 3.34699 15.3299 2.08374 15.3374C1.63014 15.3399 1.33413 15.6134 1.32996 15.9995C1.32579 16.3831 1.6268 16.6599 2.07207 16.6799C2.11376 16.6816 2.15545 16.6799 2.19714 16.6799C4.72365 16.6799 7.25015 16.6807 9.77749 16.6807C10.7306 16.6807 11.6836 16.6807 12.6567 16.6807C12.655 16.2146 12.655 15.8044 12.655 15.3349ZM1.33413 6.63642C1.69434 6.73648 1.95616 6.89908 1.98535 7.2793C2.02037 7.74541 1.69518 7.92218 1.3408 8.03975C1.3408 8.92778 1.3408 9.78579 1.3408 10.6496C1.71352 10.7322 1.96784 10.9198 1.98618 11.3167C2.00786 11.7645 1.67933 11.9237 1.35914 12.038C1.35914 12.7401 1.35914 13.4088 1.35914 14.06C1.80691 14.0342 2.21715 14.01 2.64574 13.985C2.64574 9.76495 2.64574 5.56578 2.64574 1.37079C1.58261 1.21236 1.20989 1.59008 1.36498 2.64404C1.69351 2.73326 1.95533 2.89919 1.98702 3.27609C2.02621 3.7422 1.69351 3.9173 1.33413 4.04404C1.33413 4.91706 1.33413 5.76257 1.33413 6.63642ZM12.655 6.6606C12.4816 6.6606 12.3457 6.6606 12.2089 6.6606C10.7372 6.66143 9.26468 6.65977 7.79297 6.66394C7.12257 6.6656 6.65563 7.09086 6.6648 7.6762C6.67397 8.26656 7.13758 8.6718 7.81465 8.6743C8.60596 8.6768 9.39809 8.6743 10.1894 8.6743C11.0041 8.6743 11.8195 8.6743 12.655 8.6743C12.655 7.99306 12.655 7.36018 12.655 6.6606ZM12.6584 1.32659C12.309 1.32659 12.0063 1.32659 11.7036 1.32659C11.4068 1.32659 11.1091 1.32659 10.8048 1.32659C10.9665 2.25881 11.8312 3.09348 12.6584 3.15101C12.6584 2.55899 12.6584 1.96864 12.6584 1.32659ZM12.6567 12.163C11.722 12.3265 10.874 13.1912 10.8314 13.9841C11.4335 13.9841 12.0347 13.9841 12.6567 13.9841C12.6567 13.3663 12.6567 12.7767 12.6567 12.163Z" fill="#1A365D"/>
<path d="M6.0044 3.33028C6.0044 3.10848 5.99439 2.88585 6.0069 2.66405C6.02775 2.26965 6.30208 2.00199 6.66646 2.00533C7.015 2.00866 7.30434 2.26215 7.32018 2.62736C7.34103 3.09848 7.34103 3.57126 7.32185 4.04237C7.30684 4.40425 7.01083 4.66024 6.66396 4.6594C6.31458 4.65857 6.03609 4.40342 6.01024 4.0382C5.99356 3.8039 6.0069 3.56625 6.0069 3.33028C6.00523 3.33028 6.00523 3.33028 6.0044 3.33028Z" fill="#1A365D"/>
<path d="M7.32764 12.0505C7.32764 12.2589 7.33765 12.4674 7.32514 12.675C7.30263 13.0669 7.02413 13.3354 6.66058 13.3304C6.31204 13.3254 6.02854 13.0719 6.0127 12.7034C5.99268 12.2322 5.99102 11.7595 6.01103 11.2883C6.02604 10.9281 6.32538 10.673 6.67309 10.6763C7.0233 10.6797 7.29846 10.9356 7.32014 11.3025C7.33515 11.551 7.32264 11.802 7.32264 12.0521C7.32514 12.0505 7.32681 12.0505 7.32764 12.0505Z" fill="#1A365D"/>
</g>
<defs>
<clipPath id="clip0_14_272">
<rect width="14" height="18.0032" fill="white"/>
</clipPath>
</defs>
</svg>
