<svg width="15" height="12" viewBox="0 0 15 12" fill="none" xmlns="http://www.w3.org/2000/svg">
<g clip-path="url(#clip0_14_276)">
<path d="M7.50033 11.7844C5.24541 11.7844 2.99049 11.7851 0.735563 11.7844C0.164798 11.7844 0.000669912 11.6196 0 11.0495C0 7.61087 0 4.17288 0.000669912 0.734224C0.000669912 0.162789 0.162789 0.000669912 0.735563 0C5.24541 0 9.75526 0 14.2658 0C14.8399 0 15 0.159439 15 0.734894C15.0007 4.17288 15.0007 7.61154 15 11.0495C15 11.6277 14.8426 11.7838 14.2658 11.7838C12.0102 11.7851 9.75526 11.7844 7.50033 11.7844ZM2.68099 4.27337C3.58202 4.27337 4.44955 4.27337 5.33451 4.27337C5.4216 3.84329 5.71636 3.73878 6.12299 3.74615C7.04881 3.76357 7.9753 3.75084 8.90179 3.75151C9.39417 3.75218 9.48394 3.81314 9.67353 4.26399C10.5518 4.26399 11.4274 4.26399 12.3016 4.26399C12.3016 3.18476 12.3016 2.13233 12.3016 1.09196C9.07798 1.09196 5.8825 1.09196 2.68032 1.09196C2.68099 2.1598 2.68099 3.19615 2.68099 4.27337ZM5.32446 7.5211C3.90827 7.5211 2.49743 7.5211 1.07789 7.5211C1.07789 7.88085 1.07789 8.21312 1.07789 8.55679C2.2978 8.77518 3.00857 9.50605 3.22965 10.6905C4.49109 10.6905 5.72239 10.6905 6.94766 10.6905C6.94766 9.79344 6.94766 8.92725 6.94766 8.08115C6.39498 7.8641 5.6152 8.40137 5.32446 7.5211ZM8.04698 10.7018C9.31044 10.7018 10.5417 10.7018 11.773 10.7018C11.9968 9.48261 12.7129 8.77585 13.9154 8.55612C13.9154 8.20776 13.9154 7.86812 13.9154 7.51172C12.4838 7.51172 11.0736 7.51172 9.65946 7.51172C9.57505 7.90027 9.33388 8.05435 8.95404 8.03627C8.65727 8.0222 8.35916 8.03359 8.04631 8.03359C8.04698 8.93797 8.04698 9.80282 8.04698 10.7018ZM5.3459 5.37805C3.90492 5.37805 2.49542 5.37805 1.08459 5.37805C1.08459 5.73579 1.08459 6.06605 1.08459 6.41307C2.5115 6.41307 3.92099 6.41307 5.3459 6.41307C5.3459 6.0607 5.3459 5.73043 5.3459 5.37805ZM9.65678 6.40838C11.0957 6.40838 12.5046 6.40838 13.9067 6.40838C13.9067 6.04328 13.9067 5.70497 13.9067 5.37002C12.4778 5.37002 11.077 5.37002 9.65678 5.37002C9.65678 5.72105 9.65678 6.05065 9.65678 6.40838ZM8.55678 6.9557C8.55678 6.23152 8.55678 5.53816 8.55678 4.83677C7.84199 4.83677 7.14796 4.83677 6.44455 4.83677C6.44455 5.55357 6.44455 6.24693 6.44455 6.9557C7.15265 6.9557 7.83864 6.9557 8.55678 6.9557ZM1.08928 1.08191C1.08928 2.16315 1.08928 3.21558 1.08928 4.27203C1.26814 4.27203 1.42021 4.27203 1.5897 4.27203C1.5897 3.20352 1.5897 2.15042 1.5897 1.08191C1.41686 1.08191 1.26479 1.08191 1.08928 1.08191ZM13.908 4.27605C13.908 3.18476 13.908 2.133 13.908 1.08593C13.7272 1.08593 13.5751 1.08593 13.4116 1.08593C13.4116 2.15846 13.4116 3.21089 13.4116 4.27605C13.5858 4.27605 13.7379 4.27605 13.908 4.27605ZM1.0732 10.6965C1.4383 10.6965 1.77326 10.6965 2.1129 10.6965C1.99366 10.1016 1.57429 9.70368 1.0732 9.70234C1.0732 10.0232 1.0732 10.3441 1.0732 10.6965ZM13.9194 9.67688C13.3446 9.76732 12.9514 10.1679 12.9045 10.6918C13.2421 10.6918 13.5798 10.6918 13.9194 10.6918C13.9194 10.3367 13.9194 10.0078 13.9194 9.67688Z" fill="#1A365D"/>
<path d="M7.51102 6.42781C7.21693 6.43317 6.97643 6.20406 6.96906 5.91265C6.96102 5.60918 7.20822 5.35327 7.50834 5.35327C7.79506 5.35327 8.02685 5.59176 8.0302 5.89054C8.03422 6.18396 7.80377 6.42245 7.51102 6.42781Z" fill="#1A365D"/>
</g>
<defs>
<clipPath id="clip0_14_276">
<rect width="15" height="11.7844" fill="white"/>
</clipPath>
</defs>
</svg>
