<svg width="15" height="20" viewBox="0 0 15 20" fill="none" xmlns="http://www.w3.org/2000/svg">
<g clip-path="url(#clip0_20_1277)">
<path d="M10.9185 17.6057C10.6479 18.0085 10.4132 18.3456 10.193 18.6913C10.0079 18.9806 9.76121 19.1086 9.41216 19.1078C6.55485 19.1009 3.6984 19.1052 0.841093 19.1026C0.175413 19.1018 -0.0609894 18.8253 0.014113 18.1263C0.181387 16.5722 0.355488 15.0198 0.529589 13.4665C0.713931 11.8288 0.898273 10.1919 1.08859 8.55502C1.29 6.81316 1.75854 6.19442 3.4142 5.49545C3.4142 5.01667 3.41079 4.52083 3.41506 4.02583C3.43213 1.87603 5.22349 0.0257756 7.31014 -0.00068092C9.67416 -0.0305512 11.5261 1.6712 11.5876 3.93878C11.6012 4.44999 11.5893 4.9612 11.5893 5.40072C12.0834 5.71649 12.5673 5.95887 12.9701 6.29768C13.7792 6.97787 13.8671 7.96018 13.9721 8.93053C14.3015 11.9807 14.6429 15.03 14.9825 18.0802C15.067 18.8389 14.84 19.1035 14.0796 19.1035C13.5112 19.1044 12.9386 19.1376 12.3753 19.0813C12.1286 19.0566 11.8453 18.897 11.6763 18.7101C11.3964 18.3994 11.1941 18.0179 10.9185 17.6057ZM13.5471 17.715C13.5428 17.6177 13.5436 17.5349 13.5351 17.4529C13.2031 14.4446 12.8686 11.4371 12.54 8.42786C12.4325 7.44897 11.9067 6.91386 10.9321 6.81316C10.4713 6.76536 10.246 6.53152 10.24 6.06299C10.2315 5.42291 10.2511 4.78283 10.2315 4.14361C10.2221 3.84917 10.1828 3.54535 10.0975 3.26457C9.71598 2.01599 8.47081 1.20864 7.20602 1.36738C5.8465 1.53807 4.83432 2.60571 4.77543 3.96951C4.74556 4.66506 4.77373 5.36232 4.76519 6.05957C4.76007 6.51189 4.53818 6.76024 4.12 6.81145C3.03955 6.94373 2.56759 7.44214 2.4575 8.50894C2.2834 10.1911 2.08796 11.8706 1.90277 13.551C1.75 14.9328 1.59894 16.3145 1.44106 17.7482C1.61089 17.7482 1.75 17.7482 1.88911 17.7482C3.90834 17.7474 5.93013 17.6842 7.9451 17.7721C8.89241 17.814 9.47958 17.5537 9.89861 16.7122C10.0923 16.323 10.2545 15.9739 10.246 15.525C10.2221 14.2602 10.2383 12.9946 10.2425 11.729C10.2443 11.2152 10.4918 10.9225 10.9125 10.9225C11.3341 10.9216 11.5918 11.2169 11.5935 11.7221C11.5978 12.7744 11.6447 13.8293 11.5799 14.8773C11.5244 15.7751 11.7693 16.5073 12.2814 17.243C12.6399 17.7593 13.0213 17.7994 13.5471 17.715Z" fill="#1A365D"/>
<path d="M9.5465 4.78182C9.54053 5.52601 9.35874 6.21559 8.87911 6.80105C8.11443 7.73386 6.89317 7.7313 6.12422 6.80276C5.22726 5.71974 5.23323 3.79951 6.13702 2.72333C6.89658 1.81868 8.10334 1.81868 8.86717 2.72247C9.30498 3.24136 9.54906 3.97959 9.5465 4.78182ZM8.28256 4.76646C8.12724 4.36534 8.02312 3.96764 7.82597 3.62285C7.65187 3.31903 7.40267 3.34463 7.16968 3.61261C6.70456 4.15027 6.70285 5.38349 7.16712 5.92457C7.40779 6.20535 7.66467 6.21901 7.84987 5.88787C8.03677 5.55332 8.13236 5.16672 8.28256 4.76646Z" fill="#1A365D"/>
<path d="M4.91754 10.994C4.7349 12.6556 4.57446 14.1799 4.39694 15.7024C4.34403 16.159 4.01972 16.415 3.61776 16.3698C3.23627 16.3271 2.98536 16.0002 3.03144 15.5735C3.19189 14.0775 3.3566 12.5822 3.529 11.0879C3.58362 10.6125 3.87464 10.3479 4.26893 10.3761C4.65895 10.4034 4.93034 10.7226 4.91754 10.994Z" fill="#1A365D"/>
</g>
<defs>
<clipPath id="clip0_20_1277">
<rect width="15" height="19.1144" fill="white"/>
</clipPath>
</defs>
</svg>
