<svg width="18" height="19" viewBox="0 0 18 19" fill="none" xmlns="http://www.w3.org/2000/svg">
<g clip-path="url(#clip0_14_261)">
<g filter="url(#filter0_i_14_261)">
<path d="M8.93861 15.423C9.10909 15.5717 9.2896 15.7046 9.44003 15.8659C9.73503 16.181 9.73335 16.557 9.45674 16.8311C9.1843 17.1011 8.80323 17.1011 8.49151 16.796C7.8146 16.1342 7.1519 15.4581 6.48334 14.7887C6.44407 14.7494 6.40061 14.7151 6.32122 14.6449C6.21341 14.7452 6.1031 14.8413 6.00031 14.9441C4.888 16.0564 3.77653 17.1704 2.6659 18.2836C2.59737 18.3529 2.53218 18.4256 2.45864 18.49C2.14442 18.7649 1.7483 18.7607 1.4884 18.4833C1.23686 18.2159 1.23602 17.8356 1.51682 17.5456C1.96308 17.0868 2.42605 16.6439 2.88234 16.1943C3.05031 16.0289 3.21829 15.8626 3.41384 15.6687C3.3052 15.4915 3.1999 15.3168 3.0921 15.1447C2.12854 13.6145 1.17168 12.0802 0.195586 10.5584C-0.011666 10.235 -0.0517793 9.93999 0.0735747 9.57814C0.493093 8.36972 0.889211 7.15379 1.29703 5.94203C1.48924 5.37042 1.77672 5.22 2.34833 5.40803C3.57597 5.81083 4.80026 6.22701 6.02873 6.6273C6.35966 6.73511 6.56106 6.9223 6.67722 7.26327C6.99395 8.19256 7.34578 9.11015 7.72853 10.1564C7.95082 9.24135 8.14554 8.44912 8.33524 7.65604C8.6879 6.18271 9.02636 4.70437 9.40326 3.23689C9.46008 3.01627 9.65229 2.76055 9.85286 2.65692C11.5075 1.80117 13.1789 0.976343 14.8461 0.143992C15.4378 -0.151008 15.8289 -0.00643287 16.0629 0.61198C16.6922 2.27585 17.3056 3.9464 17.9415 5.60776C18.0853 5.98298 17.9557 6.28216 17.7869 6.59304C16.4807 9.00067 15.1771 11.41 13.87 13.8176C13.4748 14.5463 13.4714 14.5438 14.0622 15.1322C14.4074 15.4756 14.7567 15.8158 15.096 16.1659C15.4144 16.4943 15.4286 16.8838 15.1486 17.1629C14.8704 17.4403 14.4759 17.4261 14.1517 17.1061C13.4188 16.3824 12.7026 15.6411 11.9588 14.9291C11.8184 14.7945 11.5853 14.7151 11.3855 14.6934C11.0421 14.6558 10.6852 14.7227 10.3442 14.6742C9.72333 14.5881 9.30464 14.8422 8.93861 15.423ZM10.147 13.3337C10.6217 11.8078 11.0312 10.2584 11.5936 8.76668C11.9563 7.8048 11.9162 7.03763 11.2134 6.27464C10.8866 5.92031 10.661 5.47405 10.3476 5.00606C10.2924 5.19325 10.2615 5.28434 10.2389 5.37711C9.73252 7.52902 9.25868 9.69012 8.70044 11.8295C8.53748 12.4529 8.71464 12.9243 8.92775 13.3973C9.35311 13.3755 9.73753 13.3555 10.147 13.3337ZM12.5413 13.4741C13.6703 11.3908 14.811 9.28481 16.0036 7.08443C15.1085 7.33597 14.3263 7.56913 13.5358 7.77137C13.2675 7.83989 13.1488 7.98029 13.0828 8.23434C12.9675 8.67809 12.8212 9.11349 12.6892 9.55307C12.314 10.8024 11.9396 12.0518 11.5635 13.3037C11.8894 13.3597 12.1828 13.4115 12.5413 13.4741ZM5.14456 13.8352C4.66153 12.8683 4.17014 11.8755 3.66539 10.8877C3.61775 10.7949 3.49574 10.6821 3.40381 10.6787C2.91075 10.6579 2.41602 10.6687 1.83605 10.6687C2.70016 12.0434 3.51914 13.3471 4.36235 14.6884C4.63646 14.3901 4.86962 14.136 5.14456 13.8352ZM5.77802 8.74412C5.44625 9.18202 5.14289 9.55808 4.87296 9.95587C4.81697 10.0386 4.84288 10.2216 4.89469 10.3278C5.29499 11.1526 5.70782 11.9707 6.12399 12.7864C6.16996 12.8766 6.25018 12.9594 6.33459 13.0179C6.57778 13.1867 6.84353 13.3254 7.07752 13.5051C7.27224 13.6547 7.43436 13.846 7.61069 14.019C7.63827 13.9973 7.66585 13.9756 7.69259 13.9538C7.06248 12.2415 6.4332 10.5283 5.77802 8.74412ZM10.9994 3.58454C11.5201 4.37845 12.0023 5.11386 12.5254 5.91111C13.0511 4.59155 13.5424 3.35891 14.0714 2.03182C12.9859 2.58087 12.0115 3.0731 10.9994 3.58454ZM15.3968 2.61848C15.3643 2.62099 15.3317 2.62433 15.2991 2.62684C14.8186 3.82689 14.3389 5.02779 13.8241 6.31475C14.7592 6.04817 15.6058 5.80665 16.4933 5.55344C16.1181 4.54977 15.757 3.58371 15.3968 2.61848ZM4.89553 7.67443C4.34982 7.49308 3.86428 7.33263 3.2935 7.14376C3.58349 7.72206 3.82417 8.20259 4.0941 8.74077C4.36987 8.3739 4.60888 8.05634 4.89553 7.67443ZM1.5703 9.31322C2.02408 9.31322 2.42605 9.31322 2.88401 9.31322C2.61993 8.78506 2.38092 8.30705 2.10013 7.74463C1.90374 8.32543 1.7458 8.79342 1.5703 9.31322Z" fill="#1A365D"/>
</g>
</g>
<defs>
<filter id="filter0_i_14_261" x="0.00244141" y="-0.0032196" width="18.001" height="22.697" filterUnits="userSpaceOnUse" color-interpolation-filters="sRGB">
<feFlood flood-opacity="0" result="BackgroundImageFix"/>
<feBlend mode="normal" in="SourceGraphic" in2="BackgroundImageFix" result="shape"/>
<feColorMatrix in="SourceAlpha" type="matrix" values="0 0 0 0 0 0 0 0 0 0 0 0 0 0 0 0 0 0 127 0" result="hardAlpha"/>
<feOffset dy="4"/>
<feGaussianBlur stdDeviation="2"/>
<feComposite in2="hardAlpha" operator="arithmetic" k2="-1" k3="1"/>
<feColorMatrix type="matrix" values="0 0 0 0 0 0 0 0 0 0 0 0 0 0 0 0 0 0 0.25 0"/>
<feBlend mode="normal" in2="shape" result="effect1_innerShadow_14_261"/>
</filter>
<clipPath id="clip0_14_261">
<rect width="18" height="18.6961" fill="white"/>
</clipPath>
</defs>
</svg>
