<svg width="31" height="55" viewBox="0 0 31 55" fill="none" xmlns="http://www.w3.org/2000/svg">
<g clip-path="url(#clip0_14_1085)">
<path d="M7.78795 15.7583C6.47699 15.3343 5.47794 14.7105 5.77522 13.3143C6.22357 11.2041 8.0633 11.8474 9.63255 11.6354C9.63255 9.61776 9.63255 7.60259 9.63255 5.58985C9.63255 4.41291 9.60331 3.23354 9.63499 2.05903C9.6691 0.762695 10.3928 0.0341142 11.7013 0.0194938C14.177 -0.00731018 16.6552 -0.00487345 19.1309 0.0170571C20.5734 0.0292407 21.285 0.745638 21.2972 2.20524C21.3191 4.92462 21.3045 7.64401 21.3045 10.3658C21.3045 10.763 21.3045 11.1602 21.3045 11.7109C21.8405 11.7109 22.2718 11.7085 22.7031 11.7109C24.1822 11.7231 25.0083 12.264 25.1789 13.3338C25.3494 14.4157 24.7841 15.1394 23.1686 15.7413C23.3001 16.5234 23.3294 17.3787 23.5901 18.1585C25.9391 25.1958 28.3174 32.2233 30.72 39.241C31.0782 40.2888 31.1147 41.2416 30.7419 42.304C29.5235 45.7861 28.3539 49.2852 27.2281 52.799C26.8188 54.0783 26.0609 54.6095 24.7232 54.6022C18.5534 54.5705 12.3812 54.5705 6.21139 54.6022C4.87606 54.6095 4.11824 54.0831 3.70644 52.8014C2.54168 49.1731 1.2624 45.5814 0.134199 41.9434C-0.0851064 41.2367 -0.00956797 40.3254 0.226794 39.6066C2.55874 32.4791 4.96379 25.3761 7.31523 18.2535C7.57352 17.4665 7.632 16.6136 7.78795 15.7583ZM22.8737 28.1881C19.8327 29.9108 16.9549 29.3723 14.082 27.9687C12.4494 27.1719 10.7193 26.9941 9.02093 27.7543C8.57014 27.9566 8.0828 28.4244 7.92441 28.8776C6.61589 32.6278 5.36341 36.3998 4.14017 40.1816C3.99153 40.6446 3.99153 41.2367 4.13774 41.6997C5.00765 44.4435 5.95797 47.1628 6.83519 49.9042C7.03013 50.5133 7.31766 50.7229 7.95609 50.7205C12.9489 50.6961 17.9442 50.6912 22.9371 50.7253C23.651 50.7302 23.9191 50.45 24.1238 49.8237C24.7646 47.8597 25.3543 45.8641 26.173 43.9732C27.0624 41.9166 27.0356 40.0232 26.212 37.9325C24.9693 34.7721 23.997 31.5117 22.8737 28.1881ZM9.93714 23.4754C12.4104 23.1806 14.6205 23.875 16.7673 24.9326C18.1245 25.6003 19.5354 25.5759 20.8196 24.7182C21.0949 24.5354 21.3581 23.9774 21.2801 23.6825C20.5759 21.0095 19.1236 18.5337 19.3332 15.6462C16.6796 15.6462 14.1795 15.6462 11.9645 15.6462C11.2773 18.2974 10.6267 20.8096 9.93714 23.4754ZM13.5459 11.65C14.891 11.65 16.0923 11.65 17.3521 11.65C17.3521 9.05488 17.3521 6.52555 17.3521 3.9743C16.0387 3.9743 14.8082 3.9743 13.5459 3.9743C13.5459 6.5621 13.5459 9.06219 13.5459 11.65Z" fill="#A0AEC0"/>
<path d="M11.5625 35.7054C11.1044 36.9895 10.6 38.744 9.84944 40.3912C9.40839 41.361 8.34598 41.4877 7.4054 41.0735C6.49651 40.6738 6.04571 39.8722 6.33325 38.878C6.77429 37.3623 7.25676 35.8516 7.82452 34.3798C8.20709 33.3832 9.06238 32.9689 10.1004 33.2321C11.0775 33.4782 11.5478 34.2068 11.5625 35.7054Z" fill="#A0AEC0"/>
</g>
<defs>
<clipPath id="clip0_14_1085">
<rect width="31" height="54.5973" fill="white"/>
</clipPath>
</defs>
</svg>
