<svg width="24" height="24" viewBox="0 0 24 24" fill="none" xmlns="http://www.w3.org/2000/svg">
<g clip-path="url(#clip0_73_1500)">
<path d="M17.4477 8.39878C17.5785 8.56278 17.7071 8.73001 17.8411 8.8908C18.1734 9.29171 18.1692 9.76445 17.8251 10.0957C17.5056 10.4033 17.0179 10.4205 16.6609 10.0957C16.4112 9.8695 16.2043 9.59508 15.9298 9.2885C15.7219 9.48574 15.5697 9.62295 15.425 9.76766C10.9034 14.2913 6.38301 18.815 1.86151 23.3386C1.6975 23.5026 1.54314 23.6827 1.35554 23.8156C0.965353 24.0933 0.573017 24.0536 0.244999 23.7084C-0.06694 23.3794 -0.0776595 23.001 0.187113 22.6354C0.300741 22.4778 0.451886 22.346 0.590168 22.2066C5.13847 17.6605 9.68785 13.1143 14.2362 8.56707C14.3723 8.43201 14.4999 8.28836 14.6263 8.15437C13.8406 7.10493 12.2573 7.05669 11.4137 8.06325C11.0621 8.48346 10.7866 8.97442 10.5218 9.45787C9.37913 11.5417 7.76905 13.1315 5.61978 14.1648C5.50723 14.2184 5.39681 14.2806 5.27997 14.3213C4.83618 14.4778 4.39454 14.3224 4.21766 13.9558C4.03114 13.5688 4.1973 13.1047 4.61107 12.8603C5.13311 12.5526 5.68088 12.2814 6.17505 11.9341C7.53322 10.9768 8.51192 9.69799 9.24835 8.21654C10.2678 6.16589 12.2434 5.26438 14.3723 5.88718C14.6992 5.98259 15.0165 6.18948 15.2781 6.41351C15.9792 7.01381 16.647 7.65269 17.3277 8.2755C17.3684 8.31731 17.4081 8.35804 17.4477 8.39878Z" fill="#1A365D"/>
<path d="M17.4484 8.39877C17.4087 8.35804 17.369 8.3173 17.3294 8.27657C16.9863 7.46617 17.1525 7.10385 17.9822 6.82085C19.0123 6.46925 20.0436 6.11979 21.0662 5.7489C21.2259 5.69101 21.4403 5.54094 21.4682 5.40158C21.6965 4.26853 21.8863 3.12904 22.1028 1.90379C21.1262 2.07102 20.2258 2.28005 19.3136 2.3658C18.5857 2.43441 18.232 2.74528 18.0497 3.45062C17.8278 4.3114 17.488 5.14324 17.1879 5.98258C16.9713 6.58824 16.5415 6.82943 16.0473 6.64398C15.566 6.46389 15.3806 6.02332 15.5778 5.44875C16.0119 4.18277 16.4664 2.92429 16.8995 1.65831C17.0421 1.24025 17.3122 1.02372 17.7453 0.947606C19.4508 0.647459 21.152 0.326944 22.8574 0.0235804C23.6293 -0.11363 24.1138 0.366606 23.9776 1.13841C23.6732 2.86105 23.3516 4.58046 23.0493 6.30417C22.9721 6.7426 22.7342 7.00094 22.3258 7.14244C21.0609 7.57765 19.8056 8.04717 18.5278 8.44272C18.2041 8.54241 17.8096 8.41914 17.4484 8.39877Z" fill="#1A365D"/>
<path d="M20.9992 3.66502C20.9992 4.36608 19.3881 6.02332 18.8735 5.959C18.612 5.92577 18.2625 5.74033 18.1585 5.52379C18.0438 5.28689 18.0513 4.84631 18.2046 4.65229C18.6313 4.1131 19.1297 3.61571 19.6678 3.188C19.8629 3.03364 20.2907 3.03149 20.5436 3.13333C20.7741 3.22552 20.9102 3.55246 20.9992 3.66502Z" fill="#1A365D"/>
</g>
<defs>
<clipPath id="clip0_73_1500">
<rect width="24" height="23.9989" fill="white"/>
</clipPath>
</defs>
</svg>
