<svg width="13" height="14" viewBox="0 0 13 14" fill="none" xmlns="http://www.w3.org/2000/svg">
    <path d="M7.73702 9.26349H0.763301V7.04545H7.66032C8.1802 7.04545 8.60634 6.96875 8.93873 6.81534C9.27111 6.66193 9.51614 6.4446 9.67381 6.16335C9.83148 5.8821 9.91032 5.54972 9.91032 5.16619C9.91032 4.79119 9.83148 4.45242 9.67381 4.14986C9.51614 3.8473 9.27537 3.60653 8.95151 3.42756C8.62765 3.24858 8.22282 3.15909 7.73702 3.15909H5.37197V14H2.62339V0.909092H7.73702C8.77253 0.909092 9.6589 1.09446 10.3961 1.4652C11.1376 1.83168 11.7044 2.33452 12.0964 2.97372C12.4884 3.60867 12.6823 4.32884 12.6781 5.13423C12.6823 5.97798 12.4842 6.70881 12.0836 7.3267C11.683 7.9446 11.112 8.42188 10.3705 8.75852C9.62907 9.09517 8.75123 9.26349 7.73702 9.26349ZM8.22921 10.1072V12.3253H0.763301V10.1072H8.22921Z" fill="#2D3748" />
</svg>
 