<svg width="166" height="166" viewBox="0 0 166 166" fill="none" xmlns="http://www.w3.org/2000/svg">
    <path d="M63.0397 133.87C68.878 134.862 73.8424 135.919 78.8582 136.499C83.426 137.028 86.1064 139.15 85.8421 142.741C85.5703 146.369 82.6696 148.433 78.1017 148.124C67.1522 147.383 56.9885 144.151 47.2727 138.041C41.6621 143.718 36.1028 149.365 30.5216 154.998C27.8485 157.693 25.2194 160.44 22.4582 163.032C19.3297 165.97 16.5024 165.962 13.4253 163.01C9.98112 159.705 6.61769 156.313 3.28362 152.898C-0.138563 149.387 -0.13122 146.67 3.40847 143.094C10.5613 135.875 17.7508 128.7 24.9917 121.562C25.9391 120.622 27.2243 120.027 28.2671 119.322C22.3186 109.526 18.9992 99.8906 18.0446 89.4919C17.9417 88.3976 17.8242 87.2961 17.8463 86.1945C17.9124 82.6622 20.1669 80.202 23.3688 80.0845C26.6294 79.967 28.9207 82.1848 29.4127 85.6951C30.1764 91.1001 31.0724 96.4831 31.9096 101.873C32.4971 102.175 33.0846 102.468 33.6721 102.769C35.0674 100.941 36.2791 98.9286 37.88 97.313C58.5086 76.5595 79.0858 55.7547 99.898 35.1922C115.753 19.5206 134.575 8.61515 155.733 1.65328C158.567 0.720621 161.255 0.404841 163.568 2.77687C165.801 5.06812 165.243 7.64578 164.361 10.3116C156.885 32.9083 144.651 52.5234 127.709 69.2672C107.161 89.58 86.7233 110.003 66.2489 130.389C65.4044 131.226 64.6407 132.13 63.0397 133.87ZM41.0305 116.752C41.7502 116.15 42.1394 115.863 42.4846 115.525C49.7622 108.27 57.0032 100.963 64.3322 93.7586C67.0788 91.0561 70.4349 91.0193 72.8069 93.3914C75.201 95.7854 75.1642 99.1269 72.6086 101.895C71.0297 103.599 69.3333 105.2 67.681 106.83C61.6077 112.816 55.5344 118.793 49.2188 125.014C50.8197 126.167 51.8772 126.916 52.898 127.657C53.39 127.239 53.6838 127.026 53.9408 126.769C76.5889 104.077 99.2811 81.4211 121.87 58.6628C133.099 47.3534 141.904 34.333 148.389 19.7703C148.785 18.8817 149.013 17.927 149.527 16.3775C132.886 23.3614 118.874 32.7908 106.706 44.9373C89.815 61.7986 73.0125 78.7406 56.1292 95.6092C50.2616 101.47 44.2764 107.205 38.306 113.036C39.4149 114.549 40.1199 115.511 41.0305 116.752ZM28.0835 140.391C31.4175 137.043 34.4725 133.966 37.6891 130.727C36.8078 129.919 35.8752 129.06 35.1996 128.443C31.8214 131.608 28.7297 134.502 25.5719 137.461C26.5339 138.585 27.3638 139.547 28.0835 140.391ZM17.8536 150.988C21.643 148.315 18.4999 147.463 17.2735 146.009C13.4767 148.293 16.451 149.365 17.8536 150.988Z" fill="#2D3748" fill-opacity="0.4" />
</svg>
 