<svg width="13" height="14" viewBox="0 0 13 14" fill="none" xmlns="http://www.w3.org/2000/svg">
<path d="M7.23707 9.26349H0.263354V7.04545H7.16037C7.68026 7.04545 8.10639 6.96875 8.43878 6.81534C8.77117 6.66193 9.01619 6.4446 9.17386 6.16335C9.33153 5.8821 9.41037 5.54972 9.41037 5.16619C9.41037 4.79119 9.33153 4.45242 9.17386 4.14986C9.01619 3.8473 8.77543 3.60653 8.45156 3.42756C8.1277 3.24858 7.72287 3.15909 7.23707 3.15909H4.87202V14H2.12344V0.909092H7.23707C8.27259 0.909092 9.15895 1.09446 9.89617 1.4652C10.6376 1.83168 11.2044 2.33452 11.5964 2.97372C11.9885 3.60867 12.1824 4.32884 12.1781 5.13423C12.1824 5.97798 11.9842 6.70881 11.5837 7.3267C11.1831 7.9446 10.6121 8.42188 9.8706 8.75852C9.12912 9.09517 8.25128 9.26349 7.23707 9.26349ZM7.72926 10.1072V12.3253H0.263354V10.1072H7.72926Z" fill="white"/>
</svg>
